<svg width="28" height="28" viewBox="0 0 28 28" fill="none" xmlns="http://www.w3.org/2000/svg">
    <path
        d="M6.19531 5.83325H2.69531M6.47531 5.83325L8.99532 14.9799C9.20565 15.7012 9.64251 16.3357 10.2413 16.7895C10.8401 17.2433 11.569 17.4924 12.3203 17.4999H22.517V5.83325H6.47531ZM14.362 21.5833C14.362 22.5498 13.5785 23.3333 12.612 23.3333C11.6455 23.3333 10.862 22.5498 10.862 21.5833C10.862 20.6168 11.6455 19.8333 12.612 19.8333C13.5785 19.8333 14.362 20.6168 14.362 21.5833ZM22.5286 21.5833C22.5286 22.5498 21.7451 23.3333 20.7786 23.3333C19.8121 23.3333 19.0286 22.5498 19.0286 21.5833C19.0286 20.6168 19.8121 19.8333 20.7786 19.8333C21.7451 19.8333 22.5286 20.6168 22.5286 21.5833Z"
        stroke="#545B61" stroke-width="1.5" stroke-linecap="round" stroke-linejoin="round" />


</svg>
