<svg width="28" height="28" viewBox="0 0 28 28" fill="none" xmlns="http://www.w3.org/2000/svg">
    <path
        d="M3.5 14.157C3.5 12.4757 3.5 11.6351 3.8559 10.9074C4.21179 10.1798 4.87534 9.66367 6.20242 8.63149L9.70242 5.90928C11.7669 4.30358 12.7991 3.50073 14 3.50073C15.2009 3.50073 16.2331 4.30358 18.2976 5.90928L21.7976 8.63149C23.1247 9.66367 23.7882 10.1798 24.1441 10.9074C24.5 11.6351 24.5 12.4757 24.5 14.157V17.5001C24.5 20.7999 24.5 22.4498 23.4749 23.4749C22.4497 24.5001 20.7998 24.5001 17.5 24.5001H10.5C7.20017 24.5001 5.55025 24.5001 4.52513 23.4749C3.5 22.4498 3.5 20.7999 3.5 17.5001V14.157Z"
        stroke="#545B61" stroke-width="1.5" stroke-linecap="round" stroke-linejoin="round" />
    <path d="M12 19V14" stroke="#545B61" stroke-width="1.5" stroke-linecap="round" />
    <path d="M16 19V14" stroke="#545B61" stroke-width="1.5" stroke-linecap="round" />
</svg>
