<svg width="38" height="38" viewBox="0 0 38 38" fill="none" xmlns="http://www.w3.org/2000/svg">
<path d="M7.91699 23.2592H30.0837M19.0003 5.84253C21.3099 5.84253 23.5249 6.76001 25.158 8.39314C26.7912 10.0263 27.7087 12.2413 27.7087 14.5509V23.2592H10.292V14.5509C10.292 12.2413 11.2095 10.0263 12.8426 8.39314C14.4757 6.76001 16.6907 5.84253 19.0003 5.84253ZM22.167 28.9909C22.167 30.7398 20.7492 32.1575 19.0003 32.1575C17.2514 32.1575 15.8337 30.7398 15.8337 28.9909C15.8337 27.242 17.2514 25.8242 19.0003 25.8242C20.7492 25.8242 22.167 27.242 22.167 28.9909Z" stroke="#3D3D3D" stroke-width="1.5" stroke-linecap="round" stroke-linejoin="round"/>
</svg>
