<svg width="24" height="24" viewBox="0 0 24 24" fill="none" xmlns="http://www.w3.org/2000/svg">
    <path
        d="M6.31055 4H3.31055M14.7105 6V12M17.7105 9H11.7105M6.55054 4L8.71054 11.84C8.89083 12.4582 9.26529 13.0021 9.77854 13.3911C10.2918 13.78 10.9166 13.9936 11.5606 14H20.3005V4H6.55054ZM13.3105 17.5C13.3105 18.3284 12.639 19 11.8105 19C10.9821 19 10.3105 18.3284 10.3105 17.5C10.3105 16.6716 10.9821 16 11.8105 16C12.639 16 13.3105 16.6716 13.3105 17.5ZM20.3105 17.5C20.3105 18.3284 19.639 19 18.8105 19C17.9821 19 17.3105 18.3284 17.3105 17.5C17.3105 16.6716 17.9821 16 18.8105 16C19.639 16 20.3105 16.6716 20.3105 17.5Z"
        stroke="#231F20" stroke-linecap="round" stroke-linejoin="round" />
</svg>
