<svg width="28" height="28" viewBox="0 0 28 28" fill="none" xmlns="http://www.w3.org/2000/svg">
    <path
        d="M10.967 4.66675H6.37033C5.4296 4.66675 4.66699 5.42936 4.66699 6.37008V10.9667C4.66699 11.9075 5.4296 12.6701 6.37033 12.6701H10.967C11.9077 12.6701 12.6703 11.9075 12.6703 10.9667V6.37008C12.6703 5.42936 11.9077 4.66675 10.967 4.66675Z"
        stroke="#545B61" stroke-width="1.5" stroke-linecap="round" stroke-linejoin="round" />
    <path
        d="M21.6303 4.66675H17.0337C16.0929 4.66675 15.3303 5.42936 15.3303 6.37008V10.9667C15.3303 11.9075 16.0929 12.6701 17.0337 12.6701H21.6303C22.5711 12.6701 23.3337 11.9075 23.3337 10.9667V6.37008C23.3337 5.42936 22.5711 4.66675 21.6303 4.66675Z"
        stroke="#545B61" stroke-width="1.5" stroke-linecap="round" stroke-linejoin="round" />
    <path
        d="M10.967 15.3301H6.37033C5.4296 15.3301 4.66699 16.0927 4.66699 17.0334V21.6301C4.66699 22.5708 5.4296 23.3334 6.37033 23.3334H10.967C11.9077 23.3334 12.6703 22.5708 12.6703 21.6301V17.0334C12.6703 16.0927 11.9077 15.3301 10.967 15.3301Z"
        stroke="#545B61" stroke-width="1.5" stroke-linecap="round" stroke-linejoin="round" />
    <path
        d="M21.6303 15.3301H17.0337C16.0929 15.3301 15.3303 16.0927 15.3303 17.0334V21.6301C15.3303 22.5708 16.0929 23.3334 17.0337 23.3334H21.6303C22.5711 23.3334 23.3337 22.5708 23.3337 21.6301V17.0334C23.3337 16.0927 22.5711 15.3301 21.6303 15.3301Z"
        stroke="#545B61" stroke-width="1.5" stroke-linecap="round" stroke-linejoin="round" />
</svg>
